<svg width="20" height="20" viewBox="0 0 20 20" fill="none" xmlns="http://www.w3.org/2000/svg">
<g id="down-arrow (1) 1">
<path id="Vector" d="M2.86882 10.2562C3.10302 10.4891 3.41983 10.6197 3.75007 10.6197C4.0803 10.6197 4.39711 10.4891 4.63132 10.2562L8.75006 6.14375L8.75006 16.875C8.75006 17.2065 8.88176 17.5245 9.11618 17.7589C9.3506 17.9933 9.66854 18.125 10.0001 18.125C10.3316 18.125 10.6495 17.9933 10.8839 17.7589C11.1184 17.5245 11.2501 17.2065 11.2501 16.875L11.2501 6.14375L15.3688 10.2562C15.6079 10.461 15.9155 10.568 16.2301 10.5559C16.5447 10.5437 16.8431 10.4133 17.0658 10.1907C17.2884 9.96808 17.4188 9.66966 17.431 9.35507C17.4431 9.04047 17.3361 8.73287 17.1313 8.49375L10.8813 2.24375C10.8227 2.18462 10.7578 2.13221 10.6876 2.0875C10.6564 2.06511 10.6229 2.04624 10.5876 2.03125L10.4688 1.96875L10.3438 1.93125L10.2376 1.9C10.0768 1.86664 9.91085 1.86664 9.75007 1.9L9.64382 1.93125L9.51881 1.96875L9.40007 2.03125C9.36475 2.04624 9.33122 2.06511 9.30007 2.0875C9.22987 2.13221 9.16489 2.18462 9.10631 2.24375L2.85632 8.49375C2.62516 8.7296 2.49672 9.04734 2.49906 9.37758C2.5014 9.70781 2.63433 10.0237 2.86882 10.2562Z" fill="white"/>
</g>
</svg>
