<svg width="20" height="20" viewBox="0 0 20 20" fill="none" xmlns="http://www.w3.org/2000/svg">
<g id="down-arrow (1) 1">
<path id="Vector" d="M17.1312 9.74375C16.897 9.51094 16.5802 9.38026 16.2499 9.38026C15.9197 9.38026 15.6029 9.51094 15.3687 9.74375L11.2499 13.8563V3.125C11.2499 2.79348 11.1182 2.47554 10.8838 2.24112C10.6494 2.0067 10.3315 1.875 9.99994 1.875C9.66841 1.875 9.35047 2.0067 9.11605 2.24112C8.88163 2.47554 8.74994 2.79348 8.74994 3.125V13.8563L4.63119 9.74375C4.39206 9.53897 4.08446 9.43196 3.76987 9.44411C3.45527 9.45626 3.15685 9.58668 2.93423 9.8093C2.71161 10.0319 2.5812 10.3303 2.56905 10.6449C2.5569 10.9595 2.6639 11.2671 2.86869 11.5063L9.11869 17.7563C9.17726 17.8154 9.24224 17.8678 9.31244 17.9125C9.34359 17.9349 9.37712 17.9538 9.41244 17.9688L9.53119 18.0313L9.65619 18.0688L9.76243 18.1C9.92322 18.1334 10.0891 18.1334 10.2499 18.1L10.3562 18.0688L10.4812 18.0313L10.5999 17.9688C10.6352 17.9538 10.6688 17.9349 10.6999 17.9125C10.7701 17.8678 10.8351 17.8154 10.8937 17.7563L17.1437 11.5063C17.3748 11.2704 17.5033 10.9527 17.5009 10.6224C17.4986 10.2922 17.3657 9.9763 17.1312 9.74375Z" fill="white"/>
</g>
</svg>
