<svg width="14" height="8" viewBox="0 0 14 8" fill="none" xmlns="http://www.w3.org/2000/svg">
<path id="Vector" d="M6.84817 8C6.54318 7.99871 6.25114 7.87652 6.03613 7.66021L0.276966 1.90105C0.0882657 1.6807 -0.0103381 1.39726 0.000859015 1.10738C0.0120562 0.817487 0.132229 0.5425 0.337364 0.337365C0.542499 0.13223 0.817487 0.0120562 1.10738 0.000859015C1.39726 -0.0103381 1.6807 0.0882657 1.90105 0.276966L6.84817 5.21833L11.7953 0.276966C12.0156 0.0882657 12.2991 -0.0103381 12.589 0.000859015C12.8788 0.0120562 13.1538 0.13223 13.359 0.337365C13.5641 0.5425 13.6843 0.817487 13.6955 1.10738C13.7067 1.39726 13.6081 1.6807 13.4194 1.90105L7.66021 7.66021C7.44519 7.87652 7.15316 7.99871 6.84817 8Z" fill="white" fill-opacity="0.82"/>
</svg>
